<svg width="99" height="16" viewBox="0 0 99 16" fill="none" xmlns="http://www.w3.org/2000/svg">
<path d="M9.35369 0.95348V10.3427C9.35369 12.3171 7.99006 13.7376 5.77415 13.7376C3.56534 13.7376 2.1946 12.3171 2.1946 10.3427V0.95348H0V10.5202C0 13.5742 2.28693 15.7404 5.77415 15.7404C9.26136 15.7404 11.5554 13.5742 11.5554 10.5202V0.95348H9.35369Z" fill="#101828"/>
<path d="M16.6992 9.02166C16.6992 7.2816 17.7646 6.28729 19.2418 6.28729C20.6836 6.28729 21.5572 7.23189 21.5572 8.8157V15.4989H23.6808V8.56001C23.6808 5.86115 22.1964 4.4478 19.9663 4.4478C18.3256 4.4478 17.2532 5.20774 16.7489 6.36541H16.614V4.58984H14.5756V15.4989H16.6992V9.02166Z" fill="#101828"/>
<path d="M31.6211 4.58984H29.3839V1.97621H27.2603V4.58984H25.6623V6.29439H27.2603V12.7362C27.2532 14.7177 28.766 15.6765 30.4421 15.641C31.1168 15.6339 31.5714 15.506 31.82 15.4137L31.4364 13.6594C31.2944 13.6879 31.0316 13.7518 30.6907 13.7518C30.0018 13.7518 29.3839 13.5245 29.3839 12.2958V6.29439H31.6211V4.58984Z" fill="#101828"/>
<path d="M33.9702 15.4989H36.0938V4.58984H33.9702V15.4989ZM35.0426 2.90661C35.7741 2.90661 36.3849 2.33842 36.3849 1.6424C36.3849 0.946378 35.7741 0.371094 35.0426 0.371094C34.304 0.371094 33.7003 0.946378 33.7003 1.6424C33.7003 2.33842 34.304 2.90661 35.0426 2.90661Z" fill="#101828"/>
<path d="M44.043 4.58984H41.8058V1.97621H39.6822V4.58984H38.0842V6.29439H39.6822V12.7362C39.6751 14.7177 41.1879 15.6765 42.864 15.641C43.5387 15.6339 43.9933 15.506 44.2418 15.4137L43.8583 13.6594C43.7163 13.6879 43.4535 13.7518 43.1126 13.7518C42.4237 13.7518 41.8058 13.5245 41.8058 12.2958V6.29439H44.043V4.58984Z" fill="#101828"/>
<path d="M48.75 0.95348H46.6264V15.4989H48.75V0.95348Z" fill="#101828"/>
<path d="M56.3086 15.7191C58.6879 15.7191 60.3711 14.5472 60.854 12.7717L58.8441 12.4094C58.4606 13.4393 57.5373 13.9648 56.3299 13.9648C54.5117 13.9648 53.2901 12.7859 53.2333 10.6836H60.989V9.93075C60.989 5.98899 58.631 4.4478 56.1594 4.4478C53.1197 4.4478 51.1168 6.76314 51.1168 10.1154C51.1168 13.5032 53.0913 15.7191 56.3086 15.7191ZM53.2404 9.09268C53.3256 7.54439 54.4478 6.20206 56.1737 6.20206C57.8214 6.20206 58.9009 7.42365 58.908 9.09268H53.2404Z" fill="#101828"/>
<path d="M67.429 15.712C69.4176 15.712 70.1989 14.4975 70.5824 13.8015H70.7599V15.4989H72.8338V0.95348H70.7102V6.35831H70.5824C70.1989 5.68359 69.4744 4.4478 67.4432 4.4478C64.8082 4.4478 62.8693 6.52876 62.8693 10.0657C62.8693 13.5955 64.7798 15.712 67.429 15.712ZM67.8977 13.9009C66.0014 13.9009 65.0142 12.2319 65.0142 10.0444C65.0142 7.8782 65.9801 6.25178 67.8977 6.25178C69.7514 6.25178 70.7457 7.76456 70.7457 10.0444C70.7457 12.3384 69.7301 13.9009 67.8977 13.9009Z" fill="#101828"/>
<path d="M90.6818 0.95348V10.3427C90.6818 12.3171 89.3182 13.7376 87.1023 13.7376C84.8935 13.7376 83.5227 12.3171 83.5227 10.3427V0.95348H81.3281V10.5202C81.3281 13.5742 83.6151 15.7404 87.1023 15.7404C90.5895 15.7404 92.8835 13.5742 92.8835 10.5202V0.95348H90.6818Z" fill="#101828"/>
<path d="M98.2688 0.95348H96.0742V15.4989H98.2688V0.95348Z" fill="#101828"/>
</svg>
